<svg width="63" height="63" viewBox="0 0 63 63" fill="none" xmlns="http://www.w3.org/2000/svg">
<g id="&#240;&#159;&#166;&#134; icon &#34;checkmark square 2&#34;">
<path id="Vector" d="M47.0494 7.97531H15.6831C13.6034 7.97531 11.6089 8.80147 10.1383 10.2721C8.66772 11.7426 7.84155 13.7372 7.84155 15.8169V47.1831C7.84155 49.2628 8.66772 51.2574 10.1383 52.7279C11.6089 54.1985 13.6034 55.0247 15.6831 55.0247H47.0494C49.1291 55.0247 51.1236 54.1985 52.5942 52.7279C54.0648 51.2574 54.8909 49.2628 54.8909 47.1831V15.8169C54.8909 13.7372 54.0648 11.7426 52.5942 10.2721C51.1236 8.80147 49.1291 7.97531 47.0494 7.97531ZM42.6058 25.2529L30.6605 40.936C30.417 41.2523 30.1043 41.5087 29.7463 41.6854C29.3884 41.8621 28.9947 41.9545 28.5956 41.9554C28.1985 41.9576 27.8062 41.8692 27.4484 41.6971C27.0906 41.525 26.7768 41.2737 26.5306 40.9621L20.1528 32.8331C19.9417 32.5619 19.7861 32.2518 19.6948 31.9205C19.6036 31.5892 19.5784 31.2431 19.6209 30.9021C19.6634 30.5611 19.7726 30.2318 19.9424 29.933C20.1121 29.6341 20.3391 29.3717 20.6102 29.1606C21.1579 28.7343 21.8525 28.5429 22.5412 28.6287C22.8822 28.6712 23.2115 28.7804 23.5103 28.9502C23.8091 29.1199 24.0716 29.3468 24.2827 29.618L28.5433 35.0548L38.4236 21.9856C38.633 21.711 38.8945 21.4803 39.193 21.3067C39.4915 21.1331 39.8213 21.0201 40.1636 20.974C40.5058 20.9278 40.8538 20.9496 41.1876 21.0379C41.5214 21.1263 41.8346 21.2795 42.1092 21.4889C42.3838 21.6983 42.6145 21.9597 42.788 22.2583C42.9616 22.5568 43.0747 22.8866 43.1208 23.2288C43.1669 23.5711 43.1452 23.919 43.0568 24.2529C42.9684 24.5867 42.8152 24.8999 42.6058 25.1745V25.2529Z" fill="#A134F6"/>
</g>
</svg>
